<?xml version="1.0" encoding="UTF-8"?>
<svg xmlns="http://www.w3.org/2000/svg" xmlns:xlink="http://www.w3.org/1999/xlink" viewBox="0 0 26 26" version="1.1" width="208px" height="208px">
<g id="surface1">
<path style="stroke: white; fill: white;" d="M 11.5 -0.03125 C 9.542969 -0.03125 7.96875 1.59375 7.96875 3.5625 L 7.96875 4 L 4 4 C 3.449219 4 3 4.449219 3 5 L 3 6 L 2 6 L 2 8 L 4 8 L 4 23 C 4 24.644531 5.355469 26 7 26 L 19 26 C 20.644531 26 22 24.644531 22 23 L 22 8 L 24 8 L 24 6 L 23 6 L 23 5 C 23 4.449219 22.550781 4 22 4 L 18.03125 4 L 18.03125 3.5625 C 18.03125 1.59375 16.457031 -0.03125 14.5 -0.03125 Z M 11.5 2.03125 L 14.5 2.03125 C 15.304688 2.03125 15.96875 2.6875 15.96875 3.5625 L 15.96875 4 L 10.03125 4 L 10.03125 3.5625 C 10.03125 2.6875 10.695313 2.03125 11.5 2.03125 Z M 6 8 L 11.125 8 C 11.25 8.011719 11.371094 8.03125 11.5 8.03125 L 14.5 8.03125 C 14.628906 8.03125 14.75 8.011719 14.875 8 L 20 8 L 20 23 C 20 23.5625 19.5625 24 19 24 L 7 24 C 6.4375 24 6 23.5625 6 23 Z M 8 10 L 8 22 L 10 22 L 10 10 Z M 12 10 L 12 22 L 14 22 L 14 10 Z M 16 10 L 16 22 L 18 22 L 18 10 Z "/>
</g>
</svg>
